<svg id="Layer_2" data-name="Layer 2" xmlns="http://www.w3.org/2000/svg" viewBox="0 0 409.29 309.75">
  <defs>
    <style>
      .cls-1, .cls-2, .cls-3 {
        fill: #fff;
      }

      .cls-1, .cls-2 {
        stroke: #fff;
      }

      .cls-2 {
        stroke-miterlimit: 10;
      }
    </style>
  </defs>
  <title>Time Buddy Logo white</title>
  <g>
    <path class="cls-1" d="M30.76,11.74H0V.64H74.85v11.1H44v90H30.76Z" transform="translate(0.49 -0.14)"/>
    <path class="cls-1" d="M135.46.64V101.73h-13.2V.64Z" transform="translate(0.49 -0.14)"/>
    <path class="cls-1" d="M279.9,57.34c-.9-14-1.8-31.05-1.65-43.5h-.45c-3.45,11.7-7.95,25.35-12.9,38.85l-17.55,48.44H237L221,53a372.29,372.29,0,0,1-11.55-39.15H209c-.45,12.45-.9,29.25-2,44.55l-2.7,43.34H191.86l7-101.09h16.64L232.8,49.69c4.2,12.15,7.5,24.15,10,34.65h.45a352.93,352.93,0,0,1,10.8-34.8l18-48.9h16.65l6.3,101.09h-12.9Z" transform="translate(0.49 -0.14)"/>
    <path class="cls-1" d="M403.65,54.34H364.5v36.6h43.8v10.79h-57V.64h54.75v10.8H364.5v32.1h39.15Z" transform="translate(0.49 -0.14)"/>
  </g>
  <path class="cls-2" d="M72.73,128.17" transform="translate(0.49 -0.14)"/>
  <g>
    <path class="cls-3" d="M294.5,151.5c-38,4-154-20-221.77-23.33Q69.18,128,65.5,128C32.64,128,6,138.52,6,151.5s37.1,26.92,71.5,24c106-9,204-58,262.93-55.41,32.83,1.44,60.36,7,61.69,22.17s-29.78,29.63-56.85,32.63C258.5,184.5,172.51,151.22,114.5,150.5" transform="translate(0.49 -0.14)"/>
    <path class="cls-3" d="M294.5,151.5a114.72,114.72,0,0,1-15.95.84c-5.32,0-10.65-.21-16-.5-10.64-.61-21.25-1.57-31.85-2.62-21.18-2.12-42.29-4.82-63.4-7.29s-42.18-5.11-63.27-7c-10.54-.9-21.07-1.71-31.56-2.12a139.44,139.44,0,0,0-30.65,2.23,91.56,91.56,0,0,0-14.54,4,57.11,57.11,0,0,0-6.64,3,30.17,30.17,0,0,0-5.6,3.74,16.56,16.56,0,0,0-2,2.11,9.17,9.17,0,0,0-1.19,2,4.87,4.87,0,0,0-.3,1.69,3.07,3.07,0,0,0,.47,1.26,14.35,14.35,0,0,0,3.91,4,40.35,40.35,0,0,0,6,3.59,82,82,0,0,0,13.89,5.2,115.93,115.93,0,0,0,14.84,3.08,118.15,118.15,0,0,0,15.13,1.17c2.53,0,5,0,7.55-.16,1.26-.06,2.5-.18,3.76-.27L81,169a541.67,541.67,0,0,0,62.16-10.16c20.58-4.54,41-10,61.37-15.81s40.78-11.81,61.47-17.32c10.35-2.74,20.79-5.33,31.41-7.45,2.65-.52,5.31-1.05,8-1.49l4-.68,4.06-.58c2.69-.43,5.44-.67,8.17-1,1.37-.14,2.75-.2,4.13-.3s2.75-.22,4.15-.23l4.18-.11c1.39,0,2.8,0,4.21.07,2.86,0,5.46.24,8.19.4,5.4.37,10.81.86,16.24,1.58a147.31,147.31,0,0,1,16.33,3A65,65,0,0,1,395.43,125a29.32,29.32,0,0,1,7.73,6.17,20.43,20.43,0,0,1,3,4.69,18.75,18.75,0,0,1,1.48,5.57,18.15,18.15,0,0,1-2.58,10.95,30.84,30.84,0,0,1-6.24,7.38,64.29,64.29,0,0,1-14.67,9.33,109.32,109.32,0,0,1-15.62,6,122.69,122.69,0,0,1-16.18,3.71c-2.72.42-5.54.82-8.22,1l-8.09.56-4,.28c-1.35.09-2.7.22-4.05.21l-8.09.12c-2.69,0-5.39.13-8.08.05l-8.06-.31a485.38,485.38,0,0,1-63.81-7.36c-21-3.78-41.8-8.39-62.57-12.88l-15.59-3.25-7.82-1.49L150,155l-3.92-.65L138.25,153c-2.62-.4-5.25-.69-7.89-1l-4-.5c-1.31-.18-2.64-.22-4-.34l-8-.62c21.3-.17,42.53,3,63.51,6.41s41.9,7.29,62.89,10.11,42,5,63,5.15l7.87,0c2.62,0,5.24-.19,7.86-.26l7.85-.3c1.31,0,2.61-.19,3.91-.3l3.9-.36,7.81-.73c2.62-.21,5.05-.63,7.58-1.08a112.43,112.43,0,0,0,14.79-3.76,98.91,98.91,0,0,0,14-5.73,54.61,54.61,0,0,0,12-8,20.91,20.91,0,0,0,4-4.78,11.8,11.8,0,0,0,.59-1.18l.19-.56.1-.28,0-.27a5.49,5.49,0,0,0,.14-2,7.38,7.38,0,0,0-.59-2.09,9.23,9.23,0,0,0-1.33-2,17.85,17.85,0,0,0-4.77-3.6,54.37,54.37,0,0,0-13.51-4.76,136.32,136.32,0,0,0-15.06-2.52c-5.12-.61-10.31-1-15.51-1.28-2.58-.12-5.28-.29-7.74-.27-1.26,0-2.5-.06-3.76,0l-3.79.15a213.34,213.34,0,0,0-30.61,4.27c-10.22,2.09-20.42,4.67-30.6,7.42-20.38,5.52-40.71,11.73-61.22,17.55s-41.24,11.19-62.21,15.71q-15.74,3.4-31.66,6c-5.31.88-10.64,1.6-16,2.33s-10.7,1.25-16.07,1.69l-4,.36c-1.39.08-2.8.2-4.2.24-2.8.11-5.6.15-8.38.06a130.11,130.11,0,0,1-16.63-1.53,125.73,125.73,0,0,1-16.31-3.62,92.48,92.48,0,0,1-15.83-6.22,51.64,51.64,0,0,1-7.61-4.74,24.81,24.81,0,0,1-6.87-7.59,13.81,13.81,0,0,1-1.79-6.3,15.83,15.83,0,0,1,1.13-6.09A19.83,19.83,0,0,1,4.48,141a27.16,27.16,0,0,1,3.57-3.55,39.64,39.64,0,0,1,7.73-4.94,66.08,66.08,0,0,1,8-3.35,102.09,102.09,0,0,1,16.3-4A148.65,148.65,0,0,1,73,123.5c10.74.68,21.39,1.73,32,3,21.21,2.58,42.26,5.79,63.27,9.11s42,6.84,63,10c10.5,1.59,21,3.06,31.56,4.22,5.27.61,10.55,1.1,15.85,1.44A126,126,0,0,0,294.5,151.5Z" transform="translate(0.49 -0.14)"/>
  </g>
  <path class="cls-2" d="M74.84,174.71" transform="translate(0.49 -0.14)"/>
  <g>
    <path class="cls-1" d="M.41,208a130.72,130.72,0,0,1,24-2.1c13.05,0,21.45,2.25,27.59,7.35,5.4,3.9,8.55,9.9,8.55,17.85,0,9.75-6.59,18.45-17.09,22.2v.3c9.59,2.4,20.84,10.2,20.84,25.5a26.2,26.2,0,0,1-8.7,20.1c-6.89,6.44-18.29,9.44-34.79,9.44a157.43,157.43,0,0,1-20.4-1.19Zm13.2,41.55H25.46c13.65,0,21.9-7.35,21.9-17.1,0-11.85-9-16.5-22.2-16.5a56,56,0,0,0-11.55.9Zm0,48.3a69.73,69.73,0,0,0,11,.6c13.5,0,26.1-4.95,26.1-19.5,0-13.95-12-19.65-26.25-19.65H13.61Z" transform="translate(0.49 -0.14)"/>
    <path class="cls-1" d="M90.11,206.64v60.15c0,22.35,9.89,31.95,23.54,31.95,14.85,0,24.6-9.9,24.6-31.95V206.64H151.3v59.1c0,31.05-16.2,43.64-38.1,43.64-20.69,0-36.29-11.69-36.29-43v-59.7Z" transform="translate(0.49 -0.14)"/>
    <path class="cls-1" d="M226.72,296.43q-13.33,11.31-32.9,11.3h-23.5V205.34h21.86a65.71,65.71,0,0,1,24.17,4.13q10.49,4.13,17.1,15.35t6.62,31.24Q240.07,285.13,226.72,296.43Zm-4.94-65.88q-4.54-8.85-11.27-11.75a38.31,38.31,0,0,0-15.28-2.9h-12v81.5h12.19q13.31,0,22.12-9.11t8.81-32.23Q226.31,239.4,221.78,230.55Z" transform="translate(0.49 -0.14)"/>
    <path class="cls-1" d="M311.31,296.43q-13.35,11.31-32.9,11.3h-23.5V205.34h21.86a65.71,65.71,0,0,1,24.17,4.13q10.49,4.13,17.1,15.35t6.62,31.24Q324.66,285.13,311.31,296.43Zm-4.94-65.88q-4.55-8.85-11.27-11.75a38.31,38.31,0,0,0-15.28-2.9h-12v81.5H280q13.3,0,22.12-9.11t8.81-32.23Q310.9,239.4,306.37,230.55Z" transform="translate(0.49 -0.14)"/>
    <path class="cls-1" d="M361,307.73V265l-32-58.35h14.85l14.25,27.9c3.9,7.8,6.9,14,10.05,20.85h.3c2.7-6.6,6.3-13.2,10.2-20.85l14.55-27.9h14.7l-33.75,58.05v43Z" transform="translate(0.49 -0.14)"/>
  </g>
</svg>
